<?xml version="1.0" encoding="utf-8"?>
<svg version="1.2" baseProfile="tiny" id="Calque_1"
	 xmlns="http://www.w3.org/2000/svg" xmlns:xlink="http://www.w3.org/1999/xlink" x="0px" y="0px" width="320px" height="100px"
	 viewBox="0 0 320 100" xml:space="preserve">
<g>
	<path fill="#172E57" d="M166.6,83.9c-1.1,1.1-1.9,2.2-3.1,2.9c-5.4,3.5-15,2.4-17.8-6.8c-1.8-5.7-1.4-11.4,1.6-16.7
		c4.2-7.5,13.7-7.6,18.8-4.2c0.2,0.2,0.4,0.4,0.9,0.3c-0.2-4.4,0.5-8.8-0.4-13.2c-0.3-1.3,0.1-1.8,1.3-1.9c1.2-0.2,2.4-0.3,3.6-0.3
		c1.9,0,2.6,0.6,2.6,2.5c0,3.3,0,6.5-0.1,9.8c-0.4,9.4-0.7,18.7-0.1,28.1c0,0.6,0.2,1.1,0.4,1.7c0.4,1.5,0.2,1.8-1.4,2
		c-0.2,0-0.4,0-0.6,0C167.9,88.3,167.7,88.1,166.6,83.9z M151.9,72.7c0,1.6,0.2,3.2,0.7,4.8c1.1,3.5,4.1,5.5,7.5,5.1
		c2.9-0.4,6.5-4,6.7-6.9c0.2-2.9,0.2-5.7,0.2-8.6c0-0.6,0-1.1-0.5-1.6c-3.3-3.6-9.6-3.6-12.5,0.1C152.4,67.7,152,70.1,151.9,72.7z
		 M127.6,68.7c1.3,5.2,2.5,10.5,4.6,15.5c1.5,3.6,3.8,4.4,7.8,3.7c1.2-0.2,2.1-1,2.3-2.1c0.2-1.2,0.1-2.5,0.1-3.7
		c0-0.4-0.2-0.7-0.6-0.7c-2.7,0-3.6-2-4.3-4c-2.5-6.8-4-13.8-5.8-20.7c-0.8-3.2-1.6-6.4-2.9-9.5c-0.6-1.5-1.7-2.2-3.3-2.3
		c-2.2-0.1-4.3,0.4-6.4,0.7c-0.9,0.1-1.3,0.6-1.5,1.4c-0.6,1.9-1.2,3.8-1.8,5.6c-3.2,8.7-7.3,17.1-10.5,25.8c-0.9,2.5-1.8,5-1.8,7.8
		c0,1.2,0.5,1.8,1.7,1.8c1.7,0.1,3.3,0,5-0.3c0.7-0.1,1-0.4,1-1.1c-0.1-3,0.7-5.8,1.5-8.6c0.3-1.1,0.9-1.5,2.1-1.5
		c3.8,0.1,7.6,0,11.3,0c0.9,0,1.8-0.1,2.6-0.5c-0.5-0.1-1-0.1-1.4-0.1c-3.4,0-6.8-0.1-10-1.6c-2-0.9-2.4-1.9-1.8-4
		c0.5-1.8,1.3-3.5,2-5.2c1.8-4.1,3.6-8.2,5.5-12.6C125.1,58.1,126.3,63.5,127.6,68.7z M270.4,88.5c-5.7-0.1-10.3-1.8-13.1-6.7
		c-1.7-3-2.2-6.4-2-9.9c0.3-4.3,1.5-8.2,4.8-11.3c5.9-5.5,17.4-5,22.1,1.3c3.5,4.6,3.8,10,2.5,15.5c-1.4,5.9-5.7,9.9-11.6,10.9
		C272.2,88.5,271.1,88.5,270.4,88.5z M278.3,71.9c0-0.9-0.3-2.7-1-4.3c-1.1-2.8-3-4.7-6.1-5c-3-0.3-5.5,0.7-7,3.3
		c-2.5,4.3-2.4,8.9-0.1,13.3c1.4,2.6,3.8,3.8,6.7,3.6c3.1-0.2,5.3-1.9,6.5-4.7C278,76.4,278.3,74.5,278.3,71.9z M233.5,57.6
		c-3.3,1-5.9,3.9-6.1,6.9c-0.4,4.9,0.8,7.4,4.7,9.3c1.4,0.7,2.8,1.1,4.4,1.4c1.8,0.4,3.5,0.8,5.2,1.6c1.2,0.6,2,1.5,2,2.9
		c0,1.2-1.1,2.4-2.6,2.7c-1.3,0.3-2.5,0.4-3.8,0.3c-2.7-0.2-5.2-0.9-7.5-2.3c-1.1-0.7-1.8-0.5-2.2,0.7c-0.2,0.5-0.4,1-0.6,1.5
		c-0.7,2.5-0.2,3.7,2.2,4.6c3.5,1.4,7.2,1.4,10.9,1c2-0.2,4-0.6,5.8-1.6c3.3-1.9,4.5-4.9,4.3-8.6c-0.2-3.3-1.8-5.7-4.9-7
		c-2-0.9-4-1.5-6.1-2c-1.2-0.3-2.4-0.6-3.6-1.1c-1.2-0.5-2.2-1.3-2-2.7c0.2-1.4,1.2-2.2,2.6-2.5c1.7-0.4,3.4-0.1,5.1,0.2
		c1.5,0.3,3,0.7,4.5,0.9c1.1,0.2,2.2,0,2.8-1.3c0.6-1.3,0.4-2.7,0.4-4.1c0-0.6-0.6-0.7-1.1-0.8c-3-0.3-5.9-0.9-9-0.8
		C237.2,56.9,235.4,57.1,233.5,57.6z M192.8,80.8c-1-4.2-2.2-8.3-3.5-12.4c-1-3.2-2.1-6.4-3.5-9.4c-0.6-1.2-1.5-1.7-2.9-1.7
		c-1.3,0.1-2.4,0.8-3.6,1.3c-1.1,0.5-1.4,1.1-0.8,2.2c1.9,3.8,3.6,7.6,4.9,11.6c1.5,4.2,2.7,8.5,4,12.7c0.7,2.3,1.6,3,3.9,3
		c1.5,0,3,0,4.4-0.2c0.9-0.1,1.5-0.5,1.8-1.4c0.8-1.9,1.7-3.7,2.7-5.6c2.7-5.3,5-10.8,6.6-16.5c0.4-1.6,0.8-3.2,0.8-4.8
		c0.1-1.9-0.4-2.3-2.2-2.4c-1.1,0-2.2,0.2-3.3,0.2c-1.6,0-2.1,0.8-2.1,2.2c0,3.7-0.8,7.3-2.1,10.8c-1.3,3.8-3,7.3-4.9,11.2
		C193,81.2,192.9,81,192.8,80.8z M296.6,57.4c-1.3-0.2-2.7-0.2-4,0.1c-0.9,0.2-1.2,0.6-1.1,1.5c0.2,1.1,0.2,2.3,0.3,3.4
		c0.5,5.1-0.1,10.2-0.1,15.3c0,2.5-0.1,5.1,0,7.6c0,2,0.9,2.8,2.8,2.8c1.2,0,2.5-0.1,3.7-0.4c0.7-0.2,1-0.6,0.9-1.3
		c-0.7-5.7-0.5-11.4-0.2-17.1c0.2-3,1-3.9,4-4.5c1.4-0.2,2.9-0.3,4.3-0.3c1.9-0.1,2.9-1,3.1-2.9c0.1-1,0.1-2.1,0.1-3.2
		c0-0.8-0.4-1.2-1.3-1.2c-3.4,0-6.5,0.7-9,3.1c-0.3,0.3-0.6,0.6-1.1,1C299,59.5,298.7,57.8,296.6,57.4z M213.1,85.7
		c0.1,1.3,0.6,2.4,2.1,2.5c1.2,0.1,2.5,0.1,3.7-0.1c1.1-0.2,1.5-0.7,1.4-1.9c-0.3-4.2-0.2-8.3,0-12.5c0.2-4.6,0.5-9.2,0.4-13.8
		c0-1.6-0.6-2.2-2.2-2.5c-1.6-0.2-3.1,0.1-4.7,0.4c-1,0.2-1.2,0.7-0.9,1.6c0.6,1.8,0.6,3.7,0.6,5.5c0,5.3-0.2,10.5-0.3,15.8
		C213,82.4,213,84,213.1,85.7z M69.9,45.5c0,5.8-10.3,10.5-23,10.5s-23-4.7-23-10.5S34.2,35,46.9,35S69.9,39.7,69.9,45.5z"/>
	<path fill="#2DB4A5" d="M54.1,82.8c0.1-6.9,0.6-13.8,0.5-20.7c0-0.9,0.4-1,1.1-1.2c1.5-0.3,2.9-0.6,4.4-0.9c1.4-0.3,1.6,0,1.5,1.4
		c-0.2,2.6-0.3,5.3-0.4,7.9c0,0.5-0.2,1.1,0.4,1.3c0.6,0.2,0.7-0.5,0.9-0.9c1.7-2.9,4.1-4.7,7.5-4.7c2.7-0.1,4.5-1.3,5.5-3.7
		c1-2.8,1.1-5.6-1.1-7.9c-0.8-0.8-1.1-1.6-1-2.8c0.3-1.6-0.4-3-1.4-4.2c-0.2-0.3-0.7-0.5-0.5-0.9c0.2-0.5,0.7-0.2,1-0.2
		c6.7,1.1,11.3,5.3,11.1,12.4c0,1.9-0.1,3.7-0.7,5.5c-0.8,2.6-2.6,4.2-5.1,5.1c-0.5,0.2-1,0.3-1.5,0.6c-1.3,0.7-1.5,1.3-0.8,2.7
		c1.5,2.8,2.7,5.7,5,8c1.1,1.1,2.4,1.8,4,1.7c0.9,0,1.2,0.3,1.2,1.1c0,0.2,0,0.4,0,0.6c0,1.8,0.4,3.8-1.4,4.8
		c-2,1.1-4.3,0.7-6.4-0.2c-1.9-0.8-3-2.5-4.2-4c-1.7-2.3-2.8-5-3.7-7.7c-0.3-1-0.6-1.9-1-2.8c-0.8-1.6-2.7-2.5-4.3-2.3
		c-1.4,0.2-2.8,1.7-3.2,3.4c-0.5,2.7-0.3,5.3-0.2,8c0.1,1.5,0.3,3,0.4,4.4c0.1,0.6,0.1,1.1-0.7,1.2c-1.6,0.3-3.3,0.7-5,0.6
		c-1.4-0.1-2.1-0.8-2.1-2.2C54.1,84.9,54.1,83.8,54.1,82.8z M22.5,66.5c-4.7-1.6-5.1-2.4-4.8-6.2c0.3-4.5,0.5-9,0.5-13.5
		c0-1.3-0.6-1.8-1.8-1.8c-1.9,0.1-3.7,0.4-5.6,0.7c-1.2,0.2-1.5,0.8-1.2,1.9c0.5,1.8,0.9,3.5,0.9,5.4c0.2,9.8,0.1,19.6-0.5,29.4
		c-0.1,1.1-0.1,2.2,0,3.3c0.2,1.9,0.9,2.4,2.7,2.4c1.2,0,2.4-0.2,3.6-0.3c0.9-0.1,1.1-0.5,1-1.3c-0.8-5.3,0.1-10.7-0.1-16.1
		c0-1.2,0.6-1.6,1.7-1.5c2.9,0,5.8,0,8.8,0c2.4,0,4.8,0,7.3,0C30.8,68.4,26.6,67.8,22.5,66.5z M43.2,63c0-1.1-0.4-1.6-1.5-1.6
		c-1.4-0.1-2.8-0.3-4.3-0.5c-0.8-0.1-1.3,0-1.3,1c0,8-0.4,16.1-0.3,24.1c0,1.5,0.6,2.1,2.2,2.2c1.4,0.1,2.7-0.3,4-0.4
		c1.1-0.1,1.5-0.6,1.4-1.8c-0.4-4.5-0.3-9.1-0.3-13.6C43.2,69.2,43.2,66.1,43.2,63z M220,50.9c0.9-1.3,0.7-3,0.2-4.4
		c-0.4-1.2-1.5-1.4-2.5-1.5c-1.3-0.2-2.5,0-3.7,0.3c-0.6,0.1-0.9,0.4-1.1,1c-1.3,3.5,0.1,5.5,4.1,5.5C217.9,51.6,219.3,52,220,50.9z
		 M82.4,44c0.9-0.1,1.2-0.4,1.1-1.2c-0.1-1.7-0.2-3.4-0.5-5c-1.6-8.8-5.7-16.2-12.6-22c-9-7.5-19.3-10-30.8-8.1
		c-6.6,1.1-12.5,4-17.6,8.5c-8,7.2-12.2,16-12.6,26.7c0,0.9,0.3,1.2,1.1,1.2c0.5,0,1,0,1.4,0C16,44.1,78.8,44.2,82.4,44z M57.5,27.6
		c0-3.3,2.5-5.9,5.8-5.9c3.3,0,6,2.7,6,5.9c0,3.2-2.7,5.8-5.9,5.8C60,33.5,57.5,31.1,57.5,27.6z M28.7,33.6c-3.1-0.1-5.9-3-5.7-6.2
		c0.1-3.1,2.9-5.7,6.1-5.7c3.1,0,5.8,2.8,5.7,6C34.7,31,31.9,33.7,28.7,33.6z"/>
</g>
</svg>
